{"title":"Hangman 2017 WEB-DL.XviD.VVEXO","magnet":"magnet:?xt=urn:btih:a70206b03cb8d5845d698c5a92e0b7fb2a1b4e8d&dn=Hangman+2017+WEB-DL.XviD.VVEXO&tr=udp%3A%2F%2Ftracker.leechers-paradise.org%3A6969&tr=udp%3A%2F%2Fzer0day.ch%3A1337&tr=udp%3A%2F%2Fopen.demonii.com%3A1337&tr=udp%3A%2F%2Ftracker.coppersurfer.tk%3A6969&tr=udp%3A%2F%2Fexodus.desync.com%3A6969","uploader":"vvesko","categoryP":"video","categoryS":"movies","size":"1213769285","seeders":"2","leechers":"11","description":"General\r\nComplete name               : Hangman.2017.WEB-DL.XviD.MP3-VVEXO.avi\r\nFormat                      : AVI\r\nFormat/Info                 : Audio Video Interleave\r\nFormat profile              : OpenDML\r\nFile size                   : 1.13 GiB\r\nDuration                    : 1 h 38 min\r\nOverall bit rate            : 1 642 kb/s\r\nWriting application         : Lavf54.6.100\r\n\r\nVideo\r\nID                          : 0\r\nFormat                      : xvid\r\nCodec ID                    : xvid\r\nDuration                    : 1 h 38 min\r\nBit rate                    : 1 305 kb/s\r\nWidth                       : 720 pixels\r\nHeight                      : 480 pixels\r\nDisplay aspect ratio        : 3:2\r\nFrame rate                  : 23.976 (24000/1001) FPS\r\nScan type                   : Progressive\r\nBits/(Pixel*Frame)          : 0.158\r\nStream size                 : 920 MiB (80%)\r\n\r\nAudio\r\nID                          : 1\r\nFormat                      : MPEG Audio\r\nFormat version              : Version 1\r\nFormat profile              : Layer 3\r\nCodec ID                    : 55\r\nCodec ID/Hint               : MP3\r\nDuration                    : 1 h 38 min\r\nBit rate mode               : Constant\r\nBit rate                    : 320 kb/s\r\nChannel(s)                  : 1 channel\r\nSampling rate               : 48.0 kHz\r\nCompression mode            : Lossy\r\nStream size                 : 226 MiB (19%)\r\nAlignment                   : Aligned on interleaves\r\nInterleave, duration        : 24  ms (0.58 video frame)","last_updated":"2018-01-27T12:04:57.597Z","parsed":{"xt":"urn:btih:a70206b03cb8d5845d698c5a92e0b7fb2a1b4e8d","dn":"Hangman 2017 WEB-DL.XviD.VVEXO","tr":["udp://exodus.desync.com:6969","udp://open.demonii.com:1337","udp://tracker.coppersurfer.tk:6969","udp://tracker.leechers-paradise.org:6969","udp://zer0day.ch:1337"],"infoHash":"a70206b03cb8d5845d698c5a92e0b7fb2a1b4e8d","infoHashBuffer":{"type":"Buffer","data":[167,2,6,176,60,184,213,132,93,105,140,90,146,224,183,251,42,27,78,141]},"name":"Hangman 2017 WEB-DL.XviD.VVEXO","announce":["udp://exodus.desync.com:6969","udp://open.demonii.com:1337","udp://tracker.coppersurfer.tk:6969","udp://tracker.leechers-paradise.org:6969","udp://zer0day.ch:1337"],"urlList":[]}}